<svg width="948" height="720" viewBox="0 0 948 720" fill="none" xmlns="http://www.w3.org/2000/svg">
<path d="M347.13 552.563C423.418 552.563 485.26 497.473 485.26 429.516C485.26 361.559 423.418 306.469 347.13 306.469C270.843 306.469 209 361.559 209 429.516C209 497.473 270.843 552.563 347.13 552.563Z" fill="#D473C7"/>
<path d="M512.251 459.682C588.539 459.682 650.382 404.592 650.382 336.635C650.382 268.678 588.539 213.588 512.251 213.588C435.964 213.588 374.121 268.678 374.121 336.635C374.121 404.592 435.964 459.682 512.251 459.682Z" fill="#D473C7"/>
<path d="M647.98 566.344C641.644 614.309 598.11 651.001 550.284 651.001C502.457 651.001 463.828 614.514 463.828 566.344C463.828 514.688 507.975 470.002 562.342 470.002C616.709 470.002 654.929 514.688 647.98 566.344Z" fill="#D473C7"/>
<path d="M598.386 547.053C597.945 547.053 597.614 546.722 597.614 546.281C597.614 545.84 597.945 545.399 598.386 545.399C598.606 545.399 619.559 543.193 624.852 536.466C625.734 535.364 626.065 534.151 625.955 532.827C625.734 531.504 625.073 531.063 624.632 530.842C619.779 528.857 604.341 539.554 598.827 543.855C598.496 544.186 597.945 544.075 597.614 543.745C597.283 543.414 597.393 542.862 597.724 542.532C599.819 540.877 618.566 526.652 625.183 529.298C626.065 529.629 627.278 530.512 627.499 532.607C627.719 534.371 627.278 535.915 626.065 537.459C620.331 544.737 599.378 546.943 598.386 547.053Z" fill="black"/>
<path d="M575.449 574.623C574.787 574.623 574.236 574.512 573.574 574.402C571.369 573.851 570.597 572.527 570.487 571.535C569.053 564.698 589.344 548.597 591.66 546.723C591.99 546.392 592.542 546.502 592.873 546.833C593.203 547.164 593.093 547.715 592.762 548.046C592.762 548.046 587.138 552.457 581.845 557.53C572.802 566.242 571.92 569.881 572.141 571.204C572.251 571.535 572.361 572.307 574.126 572.748C579.529 574.182 584.602 567.565 588.021 561.831C591.77 555.435 594.196 548.597 594.306 548.487C594.417 548.046 594.968 547.825 595.409 547.936C595.85 548.046 596.071 548.597 595.96 549.039C595.299 550.252 586.477 574.623 575.449 574.623Z" fill="black"/>
<path d="M597.504 542.422C597.394 542.422 597.283 542.422 597.173 542.311C596.732 542.091 596.622 541.65 596.842 541.209C596.953 541.098 605.003 524.888 601.694 515.624C600.812 513.198 599.158 511.544 596.842 510.441C594.968 509.669 593.644 509.449 593.093 510C591.769 511.103 593.093 516.176 594.306 520.918C596.07 527.865 598.165 535.695 595.519 540.437C595.298 540.878 594.747 540.988 594.416 540.767C593.975 540.547 593.865 539.995 594.085 539.665C596.401 535.474 594.416 527.645 592.762 521.359C591.218 515.294 589.895 510.552 591.99 508.787C593.093 507.795 594.857 507.905 597.504 509.008C600.261 510.221 602.246 512.206 603.238 515.073C606.877 524.888 598.607 541.209 598.276 541.87C598.055 542.311 597.835 542.422 597.504 542.422Z" fill="black"/>
<path d="M574.233 547.715C567.617 547.715 560.89 546.833 558.133 543.745C556.699 542.201 556.368 540.326 557.03 538.01C557.692 535.695 559.015 534.151 561.221 533.158C570.925 528.858 593.311 540.547 594.303 540.988C594.745 541.208 594.855 541.65 594.634 542.091C594.414 542.532 593.973 542.642 593.532 542.421C593.311 542.311 570.925 530.732 561.882 534.592C560.228 535.364 559.125 536.577 558.684 538.341C558.243 539.995 558.464 541.429 559.456 542.532C561.772 545.068 567.947 546.281 577.431 545.84C584.709 545.62 591.326 544.517 591.436 544.406C591.877 544.296 592.319 544.627 592.429 545.068C592.539 545.509 592.208 545.95 591.767 546.061C590.885 546.281 582.614 547.715 574.233 547.715Z" fill="black"/>
<path d="M619.561 584.327H619.451C614.929 584.217 610.298 575.725 605.335 566.683C602.137 560.948 599.159 555.545 596.623 553.119C596.292 552.788 596.292 552.237 596.623 551.906C596.954 551.575 597.505 551.575 597.836 551.906C600.593 554.442 603.681 560.066 606.879 565.911C611.18 573.741 616.032 582.563 619.671 582.673C620.553 582.673 621.325 582.122 622.097 580.908C627.39 572.638 605.886 555.545 597.064 549.7C596.734 549.48 596.623 548.928 596.844 548.598C597.064 548.267 597.616 548.156 597.947 548.377C599.27 549.259 630.588 570.542 623.42 581.901C622.207 583.445 620.994 584.327 619.561 584.327Z" fill="black"/>
<path d="M268.52 407.38C268.706 407.78 268.546 408.22 268.146 408.406C267.746 408.592 267.207 408.478 267.02 408.078C266.927 407.878 256.091 389.81 247.759 387.848C246.387 387.513 245.148 387.724 243.995 388.383C242.888 389.141 242.767 389.927 242.753 390.42C242.999 395.656 259.21 405.144 265.435 408.329C265.874 408.49 266.007 409.036 265.846 409.475C265.686 409.915 265.139 410.048 264.7 409.887C262.316 408.685 241.511 397.686 241.121 390.571C241.048 389.631 241.337 388.159 243.144 387.076C244.65 386.132 246.236 385.88 248.148 386.329C257.165 388.459 268.002 406.527 268.52 407.38Z" fill="black"/>
<path d="M303.195 416.551C303.474 417.151 303.606 417.698 303.785 418.344C304.216 420.576 303.341 421.834 302.488 422.353C296.893 426.536 273.737 414.929 271.061 413.619C270.621 413.459 270.489 412.912 270.649 412.473C270.81 412.033 271.356 411.901 271.796 412.061C271.796 412.061 278.167 415.301 284.999 417.961C296.712 422.486 300.384 421.751 301.49 420.993C301.744 420.753 302.397 420.328 302.053 418.542C301.074 413.038 292.935 411.228 286.294 410.547C278.913 409.845 271.691 410.529 271.544 410.475C271.098 410.561 270.665 410.155 270.579 409.708C270.493 409.262 270.9 408.829 271.347 408.743C272.726 408.831 298.544 406.552 303.195 416.551Z" fill="black"/>
<path d="M264.694 410.132C264.741 410.232 264.787 410.332 264.734 410.479C264.72 410.972 264.366 411.258 263.873 411.244C263.727 411.19 245.633 410.728 238.63 417.634C236.802 419.457 236 421.655 235.976 424.22C236.067 426.245 236.425 427.538 237.158 427.805C238.716 428.54 242.757 425.201 246.545 422.101C252.1 417.571 258.316 412.369 263.732 412.769C264.225 412.783 264.557 413.237 264.497 413.63C264.483 414.123 264.029 414.455 263.636 414.395C258.86 414.062 252.598 419.164 247.596 423.315C242.748 427.273 239.007 430.473 236.523 429.317C235.158 428.736 234.514 427.089 234.398 424.224C234.335 421.213 235.297 418.576 237.479 416.467C244.843 409.028 263.129 409.644 263.869 409.665C264.362 409.679 264.555 409.832 264.694 410.132Z" fill="black"/>
<path d="M279.306 428.999C282.097 434.998 284.134 441.469 282.497 445.271C281.702 447.222 280.141 448.313 277.763 448.69C275.384 449.066 273.426 448.518 271.596 446.936C263.603 439.951 264.761 414.724 264.742 413.638C264.756 413.145 265.11 412.859 265.603 412.873C266.096 412.886 266.382 413.24 266.368 413.733C266.361 413.979 265.303 439.161 272.617 445.732C274.014 446.906 275.579 447.395 277.365 447.05C279.051 446.753 280.258 445.948 280.839 444.583C282.162 441.414 280.657 435.303 276.258 426.89C272.988 420.383 269.198 414.849 269.051 414.796C268.765 414.442 268.879 413.903 269.233 413.617C269.586 413.331 270.126 413.445 270.412 413.798C270.984 414.505 275.772 421.399 279.306 428.999Z" fill="black"/>
<path d="M293.387 372.459L293.433 372.559C295.24 376.705 289.494 384.486 283.388 392.799C279.538 398.117 275.894 403.096 274.764 406.419C274.603 406.858 274.103 407.091 273.664 406.93C273.224 406.77 272.992 406.27 273.152 405.83C274.289 402.261 278.087 397.089 282.037 391.725C287.323 384.523 293.275 376.403 291.841 373.057C291.468 372.257 290.643 371.789 289.218 371.601C279.486 370.29 273.057 396.996 271.478 407.46C271.418 407.853 270.964 408.186 270.571 408.125C270.178 408.065 269.846 407.611 269.906 407.218C270.148 405.647 276.237 368.274 289.559 369.983C291.471 370.431 292.782 371.159 293.387 372.459Z" fill="black"/>
<path d="M620.069 271.091C628.031 265.472 648.454 252.589 656.913 261.759C658.805 263.789 658.678 265.56 658.294 266.749C655.183 274.908 623.238 278.182 619.503 278.524C618.951 278.608 618.489 278.17 618.477 277.72C618.393 277.167 618.831 276.705 619.281 276.693C628.859 275.745 654.138 272.128 656.438 266.07C656.498 265.722 656.955 264.635 655.424 263.116C650.645 258.077 640.821 261.493 633.363 265.226C625.119 269.362 617.954 275.03 617.954 275.03C617.546 275.318 616.922 275.299 616.634 274.891C616.346 274.483 616.364 273.858 616.772 273.57C617.18 273.282 618.231 272.388 620.069 271.091Z" fill="black"/>
<path d="M613.408 281.599C613.919 281.239 614.513 281.431 614.699 281.911C614.916 282.217 630.65 309.497 642.797 311.324C645.06 311.715 647.054 311.072 648.748 309.571C650.441 308.071 650.987 306.462 650.766 304.63C648.995 294.104 618.843 281.281 618.524 281.047C618.032 280.783 617.846 280.302 618.008 279.882C618.272 279.39 618.753 279.204 619.173 279.366C620.434 279.852 650.557 292.85 652.525 304.306C652.903 306.792 652.062 309.068 649.93 311.031C647.798 312.994 645.252 313.72 642.364 313.311C629.347 311.334 613.612 284.054 612.994 282.962C612.91 282.409 613 281.887 613.408 281.599Z" fill="black"/>
<path d="M608.455 221.481C608.864 221.193 609.272 220.905 609.753 220.719C612.083 219.686 613.986 219.567 615.505 220.636C620.062 223.843 619.34 235.821 618.498 248.496C617.986 256.656 617.463 264.366 618.615 268.599C618.802 269.079 618.435 269.644 617.883 269.728C617.402 269.914 616.838 269.547 616.754 268.995C615.662 264.413 616.113 256.602 616.654 248.268C617.4 237.19 618.14 224.587 614.466 221.98C613.511 221.278 612.232 221.416 610.587 222.118C599.388 227.268 610.546 259.765 615.823 271.793C616.009 272.273 615.817 272.867 615.337 273.054C614.856 273.24 614.262 273.048 614.076 272.567C613.241 271.168 595.797 230.414 608.455 221.481Z" fill="black"/>
</svg>
