<svg width="928" height="720" viewBox="0 0 928 720" fill="none" xmlns="http://www.w3.org/2000/svg">
<g clip-path="url(#clip0_6138_5536)">
<path d="M535.278 234.956C594.631 421.283 610.175 696.673 311.149 580.184C12.1224 463.694 -65.036 370.672 135.069 215.73C335.173 60.5048 496.557 113.943 535.278 234.956Z" fill="#E94B46"/>
<path d="M298.442 629.623C296.614 630.371 287.033 633.517 281.658 620.385C276.827 608.584 280.065 588.046 280.125 587.245C280.155 586.844 280.42 586.542 280.85 586.171C281.183 586.035 281.749 585.998 281.983 586.096L282.217 586.194C282.988 586.655 299.931 599.126 304.898 611.26C307.484 617.577 308.415 625.54 298.442 629.623ZM282.581 589.927C281.993 595.601 280.477 610.389 284.151 619.365C288.37 629.67 294.762 628.218 297.421 627.129C301.577 625.428 306.419 622.088 302.473 612.447C298.731 603.305 287.077 593.326 282.581 589.927Z" fill="#0A0A0A"/>
<path d="M416.129 581.451C414.3 582.199 404.72 585.344 399.345 572.213C394.515 560.411 397.751 539.874 397.812 539.073C397.842 538.672 398.205 538.136 398.537 537.999C399.036 537.795 399.436 537.825 399.739 538.09C400.509 538.551 417.452 551.022 422.419 563.156C425.337 569.336 426.102 577.368 416.129 581.451ZM400.268 541.754C399.68 547.429 398.164 562.217 401.839 571.192C406.057 581.498 412.449 580.046 415.108 578.957C419.264 577.256 424.107 573.916 420.16 564.275C416.585 555.065 404.833 545.32 400.268 541.754Z" fill="#0A0A0A"/>
<path d="M479.715 625.33C477.886 626.078 468.306 629.223 462.931 616.092C458.1 604.29 461.337 583.752 461.398 582.952C461.428 582.551 461.79 582.014 462.123 581.878C462.622 581.674 463.022 581.704 463.324 581.969C464.095 582.429 481.038 594.901 486.005 607.035C488.923 613.215 489.688 621.247 479.715 625.33ZM463.854 585.633C463.266 591.308 461.75 606.095 465.425 615.071C469.643 625.377 476.035 623.925 478.694 622.836C482.85 621.135 487.693 617.794 483.746 608.154C480.17 598.944 468.419 589.199 463.854 585.633Z" fill="#0A0A0A"/>
<path d="M469.051 538.384C467.222 539.133 457.642 542.278 452.267 529.147C447.436 517.345 450.673 496.807 450.734 496.006C450.764 495.606 451.126 495.069 451.459 494.933C451.957 494.729 452.358 494.759 452.66 495.023C453.431 495.484 470.374 507.956 475.341 520.09C478.259 526.27 479.024 534.302 469.051 538.384ZM453.19 498.688C452.602 504.363 451.086 519.15 454.76 528.126C458.979 538.432 465.371 536.98 468.03 535.891C472.185 534.19 477.029 530.849 473.082 521.208C469.506 511.998 457.755 502.253 453.19 498.688Z" fill="#0A0A0A"/>
<path d="M341.286 565.507C339.457 566.255 329.877 569.401 324.502 556.27C319.671 544.468 322.908 523.93 322.969 523.129C322.999 522.728 323.263 522.426 323.693 522.056C324.026 521.92 324.592 521.882 324.827 521.98L325.061 522.078C325.832 522.539 342.775 535.011 347.742 547.145C350.327 553.461 351.259 561.425 341.286 565.507ZM325.424 525.811C324.836 531.486 323.321 546.273 326.995 555.249C331.213 565.555 337.606 564.102 340.265 563.014C344.421 561.313 349.263 557.972 345.317 548.331C341.575 539.189 329.823 529.445 325.424 525.811Z" fill="#0A0A0A"/>
<path d="M438.7 684.442C436.871 685.19 427.291 688.335 421.916 675.204C417.085 663.403 420.322 642.864 420.383 642.064C420.413 641.663 420.677 641.361 421.107 640.991C421.44 640.855 422.007 640.817 422.241 640.915L422.475 641.013C423.246 641.474 440.189 653.945 445.156 666.079C447.741 672.396 448.673 680.359 438.7 684.442ZM422.839 644.746C422.25 650.42 420.735 665.208 424.409 674.184C428.627 684.489 435.02 683.037 437.679 681.948C441.835 680.247 446.677 676.907 442.731 667.266C438.989 658.124 427.237 648.379 422.839 644.746Z" fill="#0A0A0A"/>
<path d="M372.315 641.303C370.487 642.052 360.906 645.197 355.531 632.066C350.7 620.264 353.938 599.726 353.998 598.925C354.028 598.525 354.293 598.222 354.625 598.086C354.958 597.95 355.29 597.814 355.69 597.845C355.924 597.943 356.091 597.875 356.159 598.041C356.93 598.502 373.873 610.973 378.84 623.107C381.357 629.257 382.289 637.221 372.315 641.303ZM356.454 601.607C355.866 607.282 354.35 622.069 358.024 631.045C362.243 641.351 368.635 639.899 371.295 638.81C375.45 637.109 380.293 633.768 376.346 624.128C372.604 614.986 360.852 605.241 356.454 601.607Z" fill="#0A0A0A"/>
<path d="M135.567 171.801C135.953 171.646 136.455 171.221 136.494 170.758C136.648 170.024 136.069 169.136 135.335 168.982C134.332 168.712 113.335 163.237 90.1767 166.912C68.3307 170.51 29.27 163.534 19.08 151.492C18.5782 150.797 17.6521 150.72 16.9573 151.222C16.2626 151.724 16.1854 152.651 16.6872 153.346C16.8416 153.732 22.9786 162.919 32.8598 171.95C46.2148 184.068 60.457 190.01 73.9661 189.079C91.6051 187.837 104.381 182.274 114.455 177.792C122.406 174.16 128.89 171.339 134.795 172.11C134.988 172.032 135.181 171.955 135.567 171.801ZM120.167 171.921C118.044 172.771 115.535 173.776 113.103 174.974C103.223 179.378 90.8338 184.787 73.658 186.067C52.7383 187.502 34.9824 171.1 25.796 160.447C42.2387 169.09 72.1135 173.25 90.563 170.116C103.802 167.95 116.307 168.989 124.683 170.337C123.447 170.608 121.711 171.303 120.167 171.921Z" fill="#0A0A0A"/>
<path d="M148.881 158.666C149.267 158.511 149.46 158.434 149.576 158.164C150.811 156.774 165.902 137.966 191.646 124.522C196.818 121.779 203.495 120.001 210.751 117.991C227.927 113.352 247.225 107.863 255.986 90.0231C264.4 72.9939 261.119 47.436 246.142 12.23C245.911 11.6509 245.293 11.2264 244.637 11.2652C243.981 11.3041 243.402 11.5358 243.171 12.0764C242.746 12.6943 209.592 79.2667 188.171 96.8022C166.364 114.492 147.375 152.103 146.333 156.775C146.217 157.046 146.179 157.509 146.334 157.895C146.565 158.474 147.183 158.898 147.839 158.859C148.688 158.743 148.688 158.743 148.881 158.666ZM194.463 119.811C192.919 120.429 191.568 120.97 190.294 121.704C173.621 130.397 160.961 141.288 154.014 148.549C160.691 135.574 174.972 111.941 190.68 99.1563C210.094 83.3203 238.038 30.0311 244.946 16.5157C258.263 49.2514 261.158 72.7246 253.4 88.5953C245.295 105.277 226.575 110.534 209.979 114.941C204.537 116.449 199.095 117.956 194.463 119.811Z" fill="#0A0A0A"/>
<path d="M149.347 157.584C149.733 157.43 150.041 157.082 150.273 156.542C153.361 147.468 172.62 132.365 191.301 117.495C208.669 103.821 226.733 89.646 235.262 77.9447C253.441 53.4222 247.033 13.8892 246.801 12.1905C246.685 11.3411 245.798 10.8009 244.948 10.917C244.099 11.0331 243.559 11.9213 243.675 12.7706C243.829 13.1566 250.16 52.4969 232.714 76.054C224.416 87.2146 206.546 101.313 189.371 114.909C169.494 130.706 150.736 145.384 147.301 155.269C146.954 156.079 147.533 156.967 148.343 157.314C148.575 157.893 148.961 157.739 149.347 157.584Z" fill="#0A0A0A"/>
<path d="M148.875 158.636C149.84 158.249 150.109 157.246 149.801 156.474C149.492 155.701 140.537 136.67 127.374 124.475C114.405 112.201 91.1293 101.592 90.2415 101.051C89.431 100.704 88.4668 101.09 88.1194 101.901C87.7721 102.712 88.1581 103.677 88.9687 104.024C89.2389 104.14 112.59 114.943 125.405 126.83C137.95 138.602 146.906 157.633 146.983 157.826C147.292 158.598 148.103 158.945 148.875 158.636Z" fill="#0A0A0A"/>
<path d="M135.565 171.797C136.53 171.411 136.801 170.407 136.492 169.635C136.106 168.67 126.455 147.902 117.384 135.859C108.158 123.43 87.1983 114.132 86.1947 113.862C85.3842 113.515 84.419 113.901 84.0717 114.712C83.7244 115.523 84.1104 116.488 84.921 116.835C85.1912 116.951 106.074 126.056 114.798 137.79C123.599 149.717 133.404 170.871 133.481 171.064C133.79 171.836 134.793 172.106 135.565 171.797Z" fill="#0A0A0A"/>
<path d="M88.0435 116.257C91.7102 114.789 93.8717 110.116 93.1769 106.14C92.9067 103.785 91.4784 101.893 89.703 100.813C88.0047 99.9256 86.2294 99.9647 84.3768 100.931C80.7873 102.592 78.8182 107.187 79.8604 111.473C80.2464 113.557 81.5976 115.256 83.2959 116.143C84.724 116.915 86.3066 116.953 88.0435 116.257ZM85.9201 103.671C86.6921 103.362 87.5412 103.246 88.1588 103.671C89.0465 104.211 89.7032 105.292 90.0506 106.72C90.4752 109.461 89.0084 112.512 86.8855 113.362C86.1136 113.671 85.2645 113.787 84.6469 113.363C83.7592 112.822 83.1797 111.935 82.9095 110.699C82.2919 108.036 83.6815 104.792 85.9201 103.671Z" fill="#0A0A0A"/>
</g>
<defs>
<clipPath id="clip0_6138_5536">
<rect width="928" height="720" fill="white"/>
</clipPath>
</defs>
</svg>
