<svg width="928" height="720" viewBox="0 0 928 720" fill="none" xmlns="http://www.w3.org/2000/svg">
<g clip-path="url(#clip0_6138_5586)">
<path d="M743.096 133.616C765.001 165.268 692.666 245.327 749.624 248.082C791.635 250.113 787.528 183.56 780.865 164.308C774.201 145.056 769.763 126.982 794.431 106.499C819.099 86.0161 910.961 127.595 910.725 183.052C910.582 216.637 898.631 248.338 888.313 279.971C879.334 307.498 869.552 331.68 851.982 355.868C839.334 373.278 803.112 400.951 784.103 413.387C745.717 438.501 657.368 474.384 623.706 461.862C590.045 449.34 582.778 437.213 578.021 414.237C573.263 391.261 539.767 391.399 526.325 391.454C483.927 391.629 509.385 412.892 456.399 437.874C403.413 462.856 337.636 401.474 326.22 381.752C285.639 311.644 398.701 299.01 439.104 288.496C466.993 281.238 470.343 240.815 461.975 217.635C426.681 119.866 690.234 57.2356 743.096 133.616Z" fill="#FCEE71"/>
<path d="M485.716 132.323C485.562 132.569 485.282 132.741 485.08 132.789C473.938 135.792 464.706 140.942 457.867 148.02C452.328 153.845 450.3 158.718 448.428 163.345C446.4 168.218 444.528 172.845 438.951 177.635C432.384 183.186 426.024 184.303 419.867 185.372C413.71 186.44 407.956 187.411 401.543 192.716C395.206 197.898 390.626 205.475 388.082 215.274C387.898 215.84 387.34 216.184 386.763 216.01C386.186 215.836 385.841 215.293 386.024 214.727C388.675 204.485 393.487 196.539 400.179 191.062C406.949 185.462 413.309 184.345 419.466 183.276C425.623 182.208 431.377 181.237 437.511 176.104C442.856 171.682 444.42 167.547 446.447 162.674C448.32 158.048 450.454 152.731 456.349 146.612C463.497 139.042 473.008 133.72 484.555 130.62C485.161 130.474 485.785 130.845 485.929 131.436C486.024 131.831 485.87 132.077 485.716 132.323Z" fill="#0A0A0A"/>
<path d="M557.677 185.893C557.523 186.139 557.166 186.434 556.838 186.408C554.312 186.597 551.661 186.711 549.009 186.825C536.484 187.323 529.35 186.631 524.105 186.218C519.391 185.782 516.517 185.426 512.795 186.425C505.506 188.175 502.882 192.36 499.485 197.775C496.167 203.067 492.587 209.049 483.647 213.705C474.987 218.189 468.045 218.288 461.18 218.263C454.316 218.239 447.904 218.315 440.227 222.876C432.676 227.512 426.609 234.719 422.401 244.72C422.217 245.287 421.533 245.556 420.954 245.381C420.376 245.206 420.106 244.539 420.29 243.972C424.729 233.602 431.105 225.903 439.061 221.17C447.297 216.265 454.365 216.241 461.23 216.265C467.767 216.264 474.506 216.214 482.607 212.073C491.064 207.638 494.489 201.902 497.654 196.856C500.973 191.563 504.012 186.443 512.314 184.449C516.364 183.477 519.642 183.735 524.357 184.171C529.524 184.708 536.534 185.325 548.856 184.875C551.507 184.761 554.159 184.647 556.685 184.459C557.215 184.436 557.842 184.808 557.783 185.449C557.783 185.449 557.755 185.77 557.677 185.893Z" fill="#0A0A0A"/>
<path d="M885.855 185.026C885.627 184.884 885.358 184.559 885.391 184.263C884.921 178.12 883.257 172.816 880.286 168.281C877.274 163.562 873.841 160.953 870.181 158.203C866.749 155.594 863.088 152.844 859.586 148.136C856.011 143.541 853.367 138.261 851.696 132.478C851.575 131.928 851.943 131.367 852.393 131.172C852.956 131.048 853.413 131.332 853.722 131.841C855.353 137.44 857.842 142.466 861.263 146.807C864.724 151.331 868.156 153.939 871.474 156.477C875.249 159.298 878.836 162.161 882.002 167.134C885.128 171.924 886.873 177.595 887.31 184.033C887.317 184.512 886.949 185.074 886.385 185.198C886.271 185.127 886.083 185.168 885.855 185.026Z" fill="#0A0A0A"/>
<path d="M869.887 223.469C869.709 223.269 869.718 223.085 869.638 222.802C869.45 217.34 868.212 212.067 866.096 207.368C862.44 199.587 857.614 196.139 852.324 192.56C847.945 189.611 843.388 186.463 839.448 180.504C834.189 172.681 833.78 166.001 833.362 159.504C832.944 153.008 832.596 146.978 827.289 140.075C822.508 133.954 815.474 129.4 806.277 126.511C805.812 126.38 805.464 125.798 805.582 125.346C805.799 124.81 806.283 124.573 806.749 124.704C816.322 127.624 823.811 132.493 828.761 138.998C834.425 146.3 834.833 152.98 835.252 159.477C835.59 165.69 836.009 172.187 841.01 179.526C844.78 185.101 849.248 188.15 853.35 190.984C858.452 194.547 863.832 198.225 867.737 206.674C870.121 211.672 871.349 217.128 871.518 222.958C871.49 223.51 871.184 223.946 870.521 223.983C870.343 223.783 870.065 223.668 869.887 223.469Z" fill="#0A0A0A"/>
<path d="M840.84 294.151C840.471 293.761 840.402 293.102 840.901 292.654C842.198 291.488 843.403 290.225 844.325 288.856C851.786 278.006 845.783 262.665 843.848 258.273C843.58 257.794 843.895 257.15 844.386 256.889C844.877 256.628 845.537 256.936 845.806 257.416C847.925 262.003 854.181 278.198 846.205 289.871C845.184 291.329 843.971 292.78 842.475 294.124C841.976 294.573 841.208 294.541 840.84 294.151Z" fill="#0A0A0A"/>
<path d="M828.128 280.164C827.785 279.951 827.704 279.585 827.623 279.218C828.967 268.343 827.171 259.314 822.127 252.537C818.509 247.755 814.861 245.961 810.568 243.924C806.504 242.029 802.17 239.809 797.115 234.766C790.87 228.35 788.936 222.716 787.158 217.337C785.5 212.509 783.998 207.934 779.285 203.104C772.045 195.753 760.821 191.779 745.914 191.211C745.309 191.152 744.926 190.755 744.993 190.164C745.059 189.572 745.468 189.194 746.073 189.253C761.584 189.88 773.151 194.067 780.774 201.815C785.829 206.858 787.487 211.687 789.111 216.811C790.849 222.007 792.628 227.386 798.604 233.476C803.317 238.306 807.495 240.272 811.486 242.279C815.779 244.316 819.884 246.395 823.771 251.502C829.01 258.717 831.075 268.072 829.665 279.538C829.598 280.129 829.075 280.437 828.585 280.449C828.357 280.307 828.242 280.235 828.128 280.164Z" fill="#0A0A0A"/>
</g>
<defs>
<clipPath id="clip0_6138_5586">
<rect width="928" height="720" fill="white"/>
</clipPath>
</defs>
</svg>
