<svg width="99" height="40" viewBox="0 0 99 40" fill="none" xmlns="http://www.w3.org/2000/svg">
<path d="M11.2705 15.1207C11.2705 16.4416 10.1906 17.5259 8.87505 17.5259H3.61285V0.0985707H0V39.9409H3.61285V21.173H8.85541C10.171 21.173 11.2509 22.2573 11.2509 23.6175V39.9606H14.8637V23.6175C14.8637 21.9616 14.1962 20.4633 13.1359 19.3593C14.1962 18.275 14.8637 16.7767 14.8637 15.1207V0.177427H11.2509V15.1207H11.2705Z" fill="#0A0A0A"/>
<path d="M37.4833 0.256284C35.186 0.256284 33.1244 1.30113 31.7499 2.91769C30.3558 1.28142 28.3138 0.256284 26.0165 0.256284C21.8538 0.256284 18.457 3.66683 18.457 7.84623V39.9409H22.0698V7.84623C22.0698 5.67767 23.837 3.9034 25.9968 3.9034C28.1567 3.9034 29.9238 5.67767 29.9238 7.84623V19.2607L28.785 20.4041C26.5662 22.6318 25.3489 25.589 25.3489 28.7235C25.3489 31.8581 26.5662 34.8349 28.785 37.0429L31.7303 40L34.6755 37.0429C36.8943 34.8152 38.1117 31.8581 38.1117 28.7235C38.1117 25.589 36.8943 22.6121 34.6755 20.4041L33.5367 19.2607V7.84623C33.5367 5.67767 35.3038 3.9034 37.4637 3.9034C39.6236 3.9034 41.3907 5.67767 41.3907 7.84623V39.9014H45.0232V7.84623C45.0232 3.66683 41.646 0.256284 37.4833 0.256284ZM32.123 34.48L31.7303 34.8743L31.3376 34.48C29.806 32.9423 28.9617 30.8921 28.9617 28.7235C28.9617 26.555 29.806 24.5047 31.3376 22.967L31.7303 22.5727L32.123 22.967C33.6545 24.5047 34.4988 26.555 34.4988 28.7235C34.4988 30.8921 33.6545 32.9423 32.123 34.48Z" fill="#0A0A0A"/>
<path d="M57.5111 0.177427H48.6557V39.9409H57.5111C60.8294 39.9409 63.5391 37.2203 63.5391 33.8886V23.5978C63.5391 21.9418 62.8715 20.4436 61.8112 19.3396C62.8715 18.2553 63.5391 16.757 63.5391 15.101V6.22967C63.5391 2.89798 60.8294 0.177427 57.5111 0.177427ZM59.9262 33.8886C59.9262 35.2095 58.8463 36.2937 57.5307 36.2937H52.2882V21.1533H57.5307C58.8463 21.1533 59.9262 22.2376 59.9262 23.5978V33.8886ZM59.9262 15.1207C59.9262 16.4416 58.8463 17.5259 57.5307 17.5259H52.2882V3.82454H57.5307C58.8463 3.82454 59.9262 4.90882 59.9262 6.22967V15.1207Z" fill="#0A0A0A"/>
<path d="M74.1813 0C70.0972 0 66.7789 3.33169 66.7789 7.43223V32.5086C66.7789 36.6092 70.0972 39.9409 74.1813 39.9409C78.2654 39.9409 81.5837 36.6092 81.5837 32.5086V26.8112H77.9708V32.5086C77.9708 34.5983 76.2822 36.2937 74.2009 36.2937C72.1196 36.2937 70.431 34.5983 70.431 32.5086V7.43223C70.431 5.34253 72.1196 3.64712 74.2009 3.64712C76.2822 3.64712 77.9708 5.34253 77.9708 7.43223V12.7551H81.5837V7.43223C81.5837 3.33169 78.2654 0 74.1813 0Z" fill="#0A0A0A"/>
<path d="M95.3871 0.177427V18.3342H87.6706V0.177427H84.0381V39.9409H87.6706V21.9616H95.3871V39.9409H99V0.177427H95.3871Z" fill="#0A0A0A"/>
</svg>
